<?xml version="1.0" standalone="no"?>
<!DOCTYPE svg PUBLIC "-//W3C//DTD SVG 20010904//EN"
 "http://www.w3.org/TR/2001/REC-SVG-20010904/DTD/svg10.dtd">
<svg version="1.0" xmlns="http://www.w3.org/2000/svg"
 width="460.000000pt" height="215.000000pt" viewBox="0 0 460.000000 215.000000"
 preserveAspectRatio="xMidYMid meet">
<metadata>
Created by potrace 1.16, written by Peter Selinger 2001-2019
</metadata>
<g transform="translate(0.000000,215.000000) scale(0.100000,-0.100000)"
fill="#000000" stroke="none">
<path d="M0 1075 l0 -1075 2300 0 2300 0 0 1075 0 1075 -2300 0 -2300 0 0
-1075z m807 701 c-4 -10 -1 -13 7 -10 14 5 46 -20 46 -36 0 -5 -10 -20 -22
-33 -30 -30 -50 -66 -44 -76 6 -9 -37 -31 -59 -31 -8 0 -15 -7 -15 -15 0 -10
-10 -15 -30 -15 -16 0 -30 -5 -30 -11 0 -6 -7 -8 -16 -5 -12 4 -15 2 -10 -9 3
-9 0 -15 -9 -15 -7 0 -19 16 -25 35 -6 19 -16 35 -21 35 -13 0 -11 -18 4 -23
9 -4 9 -6 0 -6 -18 -1 -25 17 -14 38 11 19 -5 42 -39 54 -9 3 -4 6 12 6 15 1
29 -3 33 -8 6 -11 63 -41 77 -41 13 0 38 26 38 40 0 8 9 10 25 6 19 -5 23 -3
19 9 -4 8 -1 15 6 15 18 0 36 23 43 55 3 17 4 24 1 18 -8 -18 -24 -16 -24 2 0
8 9 15 20 15 11 0 20 5 20 10 0 6 3 10 6 10 3 0 4 -7 1 -14z m2173 -91 c0 -14
5 -24 12 -22 7 1 13 -10 13 -25 1 -32 -9 -36 -25 -10 -11 16 -11 16 -6 0 5
-16 -1 -17 -41 -14 -26 2 -49 8 -50 13 -2 6 -18 8 -36 6 -18 -3 -45 -6 -62 -8
-16 -1 -30 -4 -30 -5 0 -1 -16 -4 -35 -5 -22 -2 -40 3 -49 14 -13 15 -13 15
-8 -1 4 -12 2 -15 -9 -11 -10 4 -17 -2 -21 -16 -3 -11 -9 -18 -14 -15 -5 3 -4
15 3 27 6 12 10 39 9 60 l-3 37 176 0 176 0 0 -25z m368 8 c-2 -10 3 -17 10
-15 6 1 12 -5 12 -13 0 -8 7 -15 15 -15 8 0 12 -6 9 -14 -3 -9 2 -16 13 -18
10 -2 -33 -4 -96 -3 -86 0 -116 4 -119 14 -4 11 -6 11 -13 0 -6 -10 -30 -14
-76 -15 -37 0 -62 1 -55 3 6 3 12 11 12 19 0 8 7 14 15 14 8 0 15 7 15 15 0 8
5 15 10 15 6 0 10 7 10 15 0 13 20 15 120 15 110 0 121 -2 118 -17z m504 -23
c3 -30 0 -39 -9 -36 -7 3 -13 2 -13 -2 0 -4 -21 -6 -47 -5 -27 1 -71 3 -99 4
-28 1 -57 -2 -65 -6 -23 -15 -80 -12 -90 5 -9 13 -10 13 -6 -1 4 -12 -2 -16
-26 -16 -26 0 -32 4 -33 24 -1 13 2 24 7 24 5 1 15 2 21 3 7 0 13 8 14 16 1 8
2 18 2 23 1 4 78 7 171 7 l169 0 4 -40z m432 -2 c1 -27 -4 -38 -16 -42 -10 -2
-18 0 -18 6 0 5 -5 6 -12 2 -15 -10 -148 -11 -148 -2 0 16 -43 -7 -52 -28 -6
-13 -15 -24 -20 -24 -12 0 -10 10 7 26 8 9 15 21 15 27 0 8 -3 7 -9 -1 -4 -8
-25 -16 -45 -19 -31 -4 -35 -2 -30 14 5 15 4 16 -5 3 -10 -13 -12 -13 -22 0
-9 13 -10 12 -5 -2 3 -12 0 -18 -9 -18 -10 0 -15 10 -15 31 0 24 4 30 15 25
10 -3 15 1 15 13 0 10 3 21 7 25 4 3 83 5 176 4 l170 -3 1 -37z m-2774 -234
c0 -4 -20 -25 -44 -48 -24 -24 -46 -51 -48 -62 -3 -16 -12 -19 -58 -19 -52 0
-55 1 -58 27 -4 33 44 88 77 88 11 0 21 5 21 10 0 6 25 10 55 10 30 0 55 -3
55 -6z m337 -14 c1 -11 8 -27 17 -35 17 -17 46 -20 46 -5 0 6 -9 10 -20 10
-24 0 -26 16 -5 36 13 14 17 14 30 0 8 -8 15 -21 15 -30 0 -19 22 -34 28 -18
2 7 10 12 18 12 8 0 14 7 14 15 0 8 5 15 10 15 6 0 10 -11 10 -25 0 -16 -6
-25 -15 -25 -8 0 -24 -9 -35 -20 -23 -23 -25 -31 -9 -27 6 1 14 -4 16 -10 3
-8 -5 -13 -21 -13 -14 0 -26 -4 -26 -10 0 -5 -11 -10 -25 -10 -16 0 -25 -6
-25 -15 0 -8 -7 -15 -15 -15 -20 0 -19 20 3 36 15 12 9 13 -45 14 -36 0 -63
-4 -63 -10 0 -15 -30 -12 -31 3 0 10 -2 10 -6 0 -6 -15 -33 -17 -33 -3 0 6 -7
10 -15 10 -8 0 -15 5 -15 10 0 14 23 13 38 -2 8 -8 12 -9 12 -1 0 6 -5 13 -12
15 -16 6 -1 28 19 28 9 0 25 10 36 23 13 15 21 18 24 10 5 -15 73 -18 73 -3 0
6 -11 10 -25 10 -16 0 -25 6 -25 15 0 8 7 15 15 15 8 0 15 5 15 10 0 19 26 10
27 -10z m767 -12 c-5 -8 0 -7 11 2 17 14 18 13 11 -4 -7 -20 -7 -20 15 0 22
19 22 19 16 -1 -7 -20 -7 -20 8 0 14 17 17 18 25 5 9 -13 10 -13 10 0 0 13 1
13 10 0 6 -10 10 -11 10 -2 0 6 5 12 11 12 6 0 8 -8 5 -17 -5 -16 -5 -16 7 -2
11 15 14 15 26 1 13 -13 16 -13 26 2 17 22 49 21 41 -1 -6 -17 -5 -17 8 0 15
20 37 22 54 5 9 -9 12 -9 12 3 0 12 2 12 10 -1 5 -8 10 -25 10 -37 0 -23 0
-23 -175 -23 -166 0 -175 1 -175 19 0 27 10 51 22 51 5 0 6 -6 2 -12z m482 -5
c-5 -15 -4 -15 9 1 8 11 15 15 15 9 0 -6 7 -13 14 -16 10 -4 13 -1 10 8 -7 18
27 14 44 -5 10 -13 11 -12 5 5 -6 18 -5 18 10 6 14 -11 17 -11 17 0 0 8 6 5
15 -7 15 -19 15 -19 8 1 -6 20 -6 20 16 1 14 -13 20 -15 16 -5 -7 20 44 22 63
2 14 -14 17 -13 29 3 11 15 15 16 22 5 7 -11 9 -11 14 0 3 8 6 4 6 -8 1 -17
-5 -23 -19 -23 -11 0 -20 -7 -20 -15 0 -13 -24 -15 -155 -15 l-155 0 0 31 c0
17 -4 28 -10 24 -5 -3 -10 -1 -10 4 0 6 14 11 31 11 25 0 30 -3 25 -17z m443
4 c9 16 12 16 21 3 9 -13 10 -13 10 0 0 13 1 13 10 0 8 -12 12 -13 19 -2 7 11
9 11 14 -1 6 -15 45 -16 55 -1 11 15 72 17 72 2 0 -9 3 -10 8 -2 9 14 42 14
42 0 0 -6 5 -4 10 4 8 13 11 12 25 -5 12 -16 14 -17 9 -2 -7 20 11 24 19 3 3
-8 4 -22 3 -32 -3 -18 -16 -19 -179 -22 -138 -2 -177 0 -177 10 0 7 -3 24 -7
38 -6 25 -6 25 15 7 20 -18 21 -18 31 0z m448 0 c-3 -8 1 -14 8 -14 8 0 11 7
7 16 -4 13 -2 13 15 -2 21 -18 22 -18 32 0 9 17 10 17 25 -2 13 -19 15 -19 21
-2 8 20 41 23 49 5 5 -10 7 -10 12 1 5 11 8 11 15 0 6 -10 9 -11 9 -1 0 6 5
12 11 12 5 0 7 -4 4 -10 -3 -5 -1 -10 4 -10 6 0 11 6 11 13 0 8 4 7 10 -3 6
-10 10 -11 10 -2 0 6 5 12 11 12 6 0 8 -8 5 -17 -6 -17 -5 -17 8 0 7 9 23 17
35 17 20 0 20 -2 7 -22 -8 -13 -14 -27 -13 -33 1 -6 -61 -11 -165 -13 -157 -2
-168 -1 -168 16 0 10 5 23 10 30 7 9 7 9 -2 2 -18 -15 -28 -12 -22 5 4 8 17
15 31 15 17 0 23 -4 20 -13z m-389 -149 c3 -26 0 -28 -30 -28 -18 0 -65 -2
-104 -3 -61 -2 -71 0 -67 13 4 13 4 13 -6 0 -16 -23 -57 -23 -57 1 0 10 6 19
13 19 8 0 16 7 20 15 4 13 24 15 117 13 l111 -3 3 -27z m282 -2 c0 -29 -3 -33
-24 -33 -18 0 -23 4 -19 16 4 13 3 14 -5 2 -8 -11 -34 -15 -95 -15 -71 -1 -84
1 -80 14 3 10 1 9 -7 -2 -6 -10 -14 -18 -18 -18 -7 0 -9 38 -4 63 1 4 58 7
127 7 l125 0 0 -34z m285 0 l0 -28 -128 -2 -127 -1 0 33 0 33 128 -3 127 -3 0
-29z m265 19 c0 -8 7 -15 15 -15 15 0 22 -30 8 -30 -5 -1 -51 -2 -104 -3 -82
-2 -96 0 -92 13 4 11 3 12 -4 2 -5 -7 -21 -15 -34 -17 -22 -4 -25 -1 -23 23 0
15 2 30 2 35 1 4 54 7 117 7 96 0 115 -3 115 -15z m-2350 -55 c0 -5 7 -10 15
-10 8 0 15 -5 15 -11 0 -13 18 -31 44 -46 19 -10 18 -11 -2 -17 -25 -8 -29
-21 -8 -29 8 -3 12 -16 10 -32 -3 -34 -12 -43 -25 -25 -8 11 -12 12 -16 3 -5
-15 -83 -18 -83 -4 0 5 -14 11 -31 15 -24 4 -29 9 -21 19 8 9 4 19 -14 36 -19
18 -24 20 -24 7 0 -13 -14 -16 -85 -16 -69 0 -85 3 -85 15 0 8 -4 15 -10 15
-5 0 -10 -7 -10 -15 0 -9 -9 -15 -24 -15 -13 0 -26 -4 -28 -8 -1 -5 -18 -12
-35 -15 -25 -5 -33 -3 -33 8 0 9 -10 15 -25 15 -28 0 -34 17 -9 27 10 4 22 -1
29 -10 13 -17 70 -24 79 -9 5 9 -29 42 -43 42 -5 0 -12 -6 -14 -12 -4 -9 -8
-10 -14 -2 -4 6 -16 13 -26 17 -15 6 -16 9 -5 21 8 8 15 10 19 4 4 -5 13 -3
22 6 20 20 34 20 45 1 10 -18 50 -15 62 6 8 11 12 11 24 -6 12 -16 16 -17 30
-6 11 10 16 10 16 2 0 -18 137 -12 144 6 7 18 46 17 46 -2 0 -8 5 -15 10 -15
6 0 10 11 10 25 0 20 5 25 25 25 14 0 25 -4 25 -10z m2010 -119 l86 -1 2 -30
2 -30 -130 0 -130 0 0 28 c0 37 3 39 48 36 20 -2 75 -3 122 -3z m-2552 -111
c4 -28 25 -50 46 -50 9 0 16 -4 16 -10 0 -5 7 -10 15 -10 8 0 15 -4 15 -10 0
-5 15 -10 34 -10 21 0 36 -6 40 -15 3 -8 18 -15 33 -15 17 0 34 -8 43 -20 8
-11 20 -20 27 -20 7 0 13 -7 13 -15 0 -12 16 -15 85 -15 78 0 85 -2 85 -20 0
-11 -7 -20 -15 -20 -12 0 -15 -16 -15 -85 0 -69 -3 -85 -15 -85 -8 0 -15 -4
-15 -10 0 -5 -18 -10 -39 -10 -25 0 -41 -5 -45 -15 -3 -8 -17 -15 -31 -15 -15
0 -24 -4 -20 -10 3 -5 -5 -15 -19 -22 -14 -6 -26 -17 -26 -25 0 -7 -7 -13 -15
-13 -8 0 -15 -7 -15 -16 0 -8 -6 -22 -14 -30 -17 -16 -56 -19 -56 -4 0 6 -9
10 -20 10 -11 0 -20 5 -20 10 0 6 -11 10 -25 10 -14 0 -25 5 -25 10 0 6 -9 10
-21 10 -20 0 -49 21 -49 36 0 3 -16 21 -35 40 -19 18 -35 40 -35 48 0 9 -4 16
-10 16 -6 0 -10 30 -10 70 0 40 4 70 10 70 6 0 10 7 10 15 0 8 5 15 10 15 6 0
10 11 10 25 0 16 6 25 15 25 12 0 15 14 15 63 0 49 4 68 20 85 11 12 20 26 20
32 0 21 25 4 28 -20z m572 -220 c0 -5 7 -10 15 -10 16 0 55 -30 55 -42 0 -5
-7 -8 -15 -8 -8 0 -15 -4 -15 -10 0 -5 7 -10 15 -10 9 0 15 -9 15 -25 0 -14 5
-25 10 -25 6 0 10 -5 10 -11 0 -14 -26 -39 -40 -39 -6 0 -8 -4 -5 -10 3 -5 0
-10 -9 -10 -8 0 -17 6 -19 13 -4 9 -8 9 -14 1 -15 -21 -50 -20 -70 2 -10 11
-27 26 -38 32 -11 6 -14 12 -7 12 8 0 12 19 12 60 0 35 5 67 13 75 14 16 87
20 87 5z m-188 -267 c23 -20 23 -42 1 -59 -17 -13 -17 -13 0 -14 21 0 23 -30
2 -30 -8 0 -14 -6 -12 -12 1 -9 -19 -14 -70 -16 -60 -2 -73 0 -73 13 0 8 -4
15 -10 15 -18 0 -10 45 10 60 11 8 20 20 20 27 0 7 7 13 15 13 8 0 15 5 15 10
0 17 82 12 102 -7z"/>
</g>
</svg>
